# xmcd
#
# Track frame offsets:
#	150
#	16542
#	34545
#	55130
#	70842
#	94662
#	112404
#	132675
#	158364
#	182699
#	207750
#	227318
#	245380
#	259371
#
# Disc length: 3678 seconds
#
# Revision: 1
# Processed by: cddbd v1.5.2PL0 Copyright (c) Steve Scherf et al.
# Submitted via: audiograbber 1.83.01
#
DISCID=b20e5c0e
DTITLE=Geoff Achison - Another Mile, Another Minute
DYEAR=2016
DGENRE=Blues
TTITLE0=High Wire
TTITLE1=Delta Dave
TTITLE2=Working My Way Back Home
TTITLE3=I'm Gonna Ride
TTITLE4=A New Bad Habit
TTITLE5=I Wish You Were Mine
TTITLE6=Another Mile, Another Minute
TTITLE7=Make No Mistake
TTITLE8=Dreaming I'm Awake
TTITLE9=Sum Peeples Got All Da Fonk
TTITLE10=Baby Come Back
TTITLE11=I Need Help
TTITLE12=Make My Stand
TTITLE13=Front Porch Farewell
EXTD=
EXTT0=
EXTT1=
EXTT2=
EXTT3=
EXTT4=
EXTT5=
EXTT6=
EXTT7=
EXTT8=
EXTT9=
EXTT10=
EXTT11=
EXTT12=
EXTT13=
PLAYORDER=
